# Blender v2.83.3 OBJ File: ''
# www.blender.org
mtllib rock2.mtl
o Sphere_Sphere.001
v 0.246507 0.094759 0.106483
v 0.204756 0.092119 0.153471
v 0.145517 0.052528 0.114912
v 0.087776 0.033151 0.086416
v 0.102786 0.021698 0.022405
v 0.164629 0.041369 0.050933
v 0.000941 0.887028 0.002632
v 0.000941 0.877636 0.100010
v 0.095410 0.817126 0.051078
v 0.116298 0.838927 -0.012172
v 0.000941 0.450580 0.392819
v 0.000941 0.358228 0.403037
v 0.068940 0.350664 0.398047
v 0.091281 0.433541 0.380453
v -0.100384 0.820250 -0.098771
v -0.114416 0.838927 -0.012172
v 0.000941 0.807666 -0.197564
v -0.075506 0.782877 -0.198519
v 0.000941 0.550193 0.363988
v 0.085386 0.505161 0.331959
v -0.245860 0.141624 -0.075802
v -0.260206 0.101204 -0.003545
v -0.340588 0.232120 0.057374
v -0.396298 0.371199 0.085198
v -0.397418 0.419437 0.022355
v -0.376203 0.458189 -0.049413
v -0.341815 0.490066 -0.130272
v -0.302204 0.516233 -0.213315
v -0.196308 0.314237 -0.299814
v -0.136474 0.233409 -0.358770
v -0.143780 0.157929 -0.298888
v -0.163804 0.066285 -0.137593
v 0.102561 0.691617 -0.272886
v 0.163702 0.612853 -0.301603
v 0.032331 0.661873 -0.297659
v 0.053551 0.722701 -0.265108
v 0.262089 0.101204 -0.003545
v 0.260945 0.094480 0.057759
v 0.170732 0.041277 -0.010409
v 0.171825 0.043344 -0.063931
v -0.127284 0.325522 0.388196
v -0.067057 0.350664 0.398047
v -0.089398 0.433541 0.380453
v -0.220528 0.329310 0.325139
v -0.177721 0.288061 0.364254
v 0.102267 0.820250 -0.098772
v 0.077389 0.782877 -0.198519
v -0.205212 0.669696 -0.229694
v -0.151935 0.733682 -0.211472
v -0.100677 0.691618 -0.272886
v -0.161818 0.612853 -0.301603
v -0.235280 0.608548 -0.255753
v 0.078457 0.168005 -0.326341
v -0.076573 0.168005 -0.326341
v -0.066411 0.203193 -0.376491
v 0.068295 0.203193 -0.376491
v 0.222410 0.329310 0.325139
v 0.179605 0.288061 0.364254
v 0.215816 0.242554 0.327647
v 0.296684 0.269846 0.315296
v 0.275375 0.676488 -0.145850
v 0.304413 0.655522 -0.095653
v 0.375742 0.594901 -0.103158
v 0.314747 0.597513 -0.180682
v 0.207096 0.669696 -0.229694
v 0.237164 0.608548 -0.255753
v 0.343699 0.490066 -0.130272
v 0.304086 0.516233 -0.213315
v 0.315197 0.294467 0.249357
v 0.294820 0.213038 0.267082
v 0.341219 0.237276 0.249473
v 0.239161 0.545754 -0.287587
v -0.375529 0.563639 -0.055531
v -0.359717 0.513499 0.006257
v -0.382113 0.317433 0.148379
v -0.378565 0.276501 0.212558
v -0.339335 0.237276 0.249473
v -0.313313 0.294467 0.249357
v -0.294802 0.269846 0.315296
v -0.083504 0.505161 0.331959
v -0.093528 0.817126 0.051078
v 0.162407 0.562217 -0.318407
v 0.084167 0.087101 0.182146
v -0.082283 0.087101 0.182146
v -0.120088 0.058455 0.137119
v -0.143634 0.052528 0.114912
v -0.085893 0.033151 0.086416
v -0.100902 0.021698 0.022405
v 0.111878 0.450074 -0.342831
v 0.161993 0.383210 -0.352107
v 0.107795 0.317930 -0.360041
v 0.138357 0.233409 -0.358770
v -0.105912 0.317930 -0.360041
v -0.160109 0.383210 -0.352107
v -0.109994 0.450074 -0.342831
v -0.160523 0.562217 -0.318407
v 0.377412 0.563639 -0.055531
v 0.361601 0.513499 0.006257
v 0.399302 0.419437 0.022355
v 0.378086 0.458189 -0.049413
v 0.000941 0.737000 -0.256719
v 0.198190 0.314237 -0.299814
v -0.237277 0.545754 -0.287587
v 0.380447 0.276501 0.212558
v 0.290218 0.167396 0.192718
v 0.321239 0.179170 0.164761
v 0.383997 0.317433 0.148379
v 0.347029 0.189115 0.123200
v 0.398182 0.371199 0.085198
v 0.342472 0.232120 0.057374
v -0.227367 0.192759 0.279757
v -0.292937 0.213038 0.267082
v -0.202874 0.092119 0.153471
v -0.169942 0.043344 -0.063931
v -0.168848 0.041277 -0.010409
v -0.162745 0.041369 0.050933
v -0.244624 0.094759 0.106483
v -0.259063 0.094480 0.057759
v 0.247742 0.141624 -0.075802
v 0.165688 0.066285 -0.137593
v 0.105213 0.023820 -0.033038
v 0.101723 0.048112 -0.100796
v 0.080148 0.274677 0.372029
v 0.129168 0.325522 0.388196
v -0.078266 0.274677 0.372029
v 0.145662 0.157929 -0.298888
v -0.302531 0.655522 -0.095653
v -0.373858 0.594901 -0.103158
v -0.273493 0.676488 -0.145850
v -0.213932 0.242554 0.327647
v -0.103331 0.023820 -0.033038
v -0.099840 0.048112 -0.100796
v -0.288336 0.167396 0.192718
v -0.319355 0.179170 0.164761
v -0.345147 0.189115 0.123200
v -0.312864 0.597513 -0.180682
v 0.136338 0.220428 0.325434
v 0.153817 0.733682 -0.211472
vn 0.3129 -0.9141 0.2578
vn 0.5012 0.8349 0.2273
vn 0.1293 0.1393 0.9818
vn -0.2749 0.8999 -0.3385
vn 0.3554 0.3948 0.8472
vn -0.8503 -0.3208 -0.4171
vn 0.1329 0.4300 -0.8930
vn 0.5155 -0.8567 0.0185
vn -0.4635 0.2164 0.8593
vn 0.2749 0.8999 -0.3385
vn -0.4286 0.5571 -0.7112
vn 0.0000 -0.8186 -0.5744
vn 0.3854 -0.0026 0.9227
vn 0.6759 0.6444 -0.3575
vn 0.6224 0.5503 -0.5566
vn 0.8454 -0.0226 -0.5337
vn 0.8083 -0.0751 0.5840
vn 0.7340 0.2401 -0.6352
vn -0.6438 0.5004 0.5789
vn 0.4637 0.3516 -0.8133
vn 0.0050 -0.9213 0.3888
vn -0.0000 0.1736 -0.9848
vn 0.9759 0.1980 0.0923
vn -0.2191 0.6461 -0.7311
vn 0.9419 -0.1088 -0.3178
vn 0.3186 -0.6194 0.7175
vn 0.7400 -0.0958 -0.6658
vn -0.7400 -0.0958 -0.6658
vn 0.7169 -0.6422 0.2714
vn -0.2767 0.1772 -0.9445
vn 0.9116 -0.4070 0.0571
vn 0.9428 -0.2966 -0.1521
vn 0.6500 -0.7299 0.2115
vn 0.8396 -0.4979 -0.2173
vn 0.2767 0.1772 -0.9445
vn -0.2666 -0.7845 0.5599
vn 0.5523 -0.0501 -0.8321
vn -0.5155 -0.8567 0.0185
vn 0.7168 -0.5972 -0.3599
vn 0.2785 -0.9604 0.0036
vn 0.1829 -0.9599 -0.2122
vn 0.0000 -0.3318 0.9433
vn 0.3231 -0.6411 -0.6961
vn -0.7020 0.6280 0.3359
vn 0.6438 0.5004 0.5789
vn -0.6227 0.7607 -0.1833
vn -0.3231 -0.6411 -0.6961
vn -0.1333 -0.4897 0.8617
vn -0.2785 -0.9604 0.0037
vn -0.1829 -0.9599 -0.2122
vn 0.0000 -0.8958 -0.4445
vn -0.5303 0.7481 -0.3988
vn -0.7168 -0.5972 -0.3599
vn 0.8503 -0.3208 -0.4171
vn -0.5151 -0.7572 0.4017
vn -0.5523 -0.0501 -0.8321
vn 0.5151 -0.7572 0.4017
vn -0.0646 0.4307 -0.9002
vn -0.6500 -0.7299 0.2115
vn -0.8396 -0.4979 -0.2173
vn -0.9428 -0.2966 -0.1521
vn -0.7169 -0.6422 0.2714
vn -0.9116 -0.4070 0.0571
vn -0.8454 -0.0226 -0.5337
vn -0.8083 -0.0751 0.5840
vn -0.7340 0.2401 -0.6352
vn -0.3129 -0.9141 0.2578
vn -0.4637 0.3516 -0.8133
vn -0.9759 0.1980 0.0923
vn -0.9419 -0.1088 -0.3178
vn -0.3226 -0.6142 0.7202
vn 0.1336 -0.5180 0.8449
vn -0.3854 -0.0026 0.9227
vn -0.6759 0.6444 -0.3575
vn 0.1893 -0.7561 0.6264
vn -0.6224 0.5503 -0.5566
vn 0.5303 0.7481 -0.3988
vn -0.0366 -0.7154 0.6978
vn 0.6227 0.7607 -0.1833
vn 0.7020 0.6280 0.3359
vn 0.4286 0.5571 -0.7112
vn 0.2304 0.6623 -0.7130
vn 0.4635 0.2164 0.8593
vn 0.0000 -0.9993 -0.0382
vn -0.5012 0.8349 0.2273
vn -0.1293 0.1393 0.9818
vn -0.3554 0.3948 0.8472
usemtl (null).001
s 1
f 1//1 2//1 3//1 4//1 5//1 6//1
f 7//2 8//2 9//2 10//2
f 11//3 12//3 13//3 14//3
f 15//4 16//4 7//4 17//4 18//4
f 19//5 11//5 14//5 20//5
f 21//6 22//6 23//6 24//6 25//6 26//6 27//6 28//6 29//6 30//6 31//6 32//6
f 33//7 34//7 35//7 36//7
f 37//8 38//8 1//8 6//8 39//8 40//8
f 41//9 42//9 43//9 44//9 45//9
f 17//10 7//10 10//10 46//10 47//10
f 48//11 49//11 50//11 51//11 52//11
f 53//12 54//12 55//12 56//12
f 57//13 58//13 59//13 60//13
f 61//14 62//14 63//14 64//14
f 65//15 61//15 64//15 66//15
f 64//16 63//16 67//16 68//16
f 69//17 60//17 70//17 71//17
f 66//18 64//18 68//18 72//18
f 73//19 74//19 25//19 24//19 75//19 76//19 77//19 78//19 79//19 44//19 43//19 80//19 19//19 8//19 81//19
f 34//20 66//20 72//20 82//20
f 83//21 84//21 85//21 86//21 87//21 88//21 5//21 4//21 3//21
f 82//22 89//22 90//22 91//22 92//22 56//22 55//22 30//22 93//22 94//22 95//22 96//22 51//22 35//22 34//22
f 97//23 98//23 99//23 100//23
f 18//24 17//24 101//24 50//24 49//24
f 63//25 97//25 100//25 67//25
f 60//26 59//26 70//26
f 68//27 102//27 90//27 72//27
f 29//28 28//28 103//28 94//28
f 104//29 71//29 105//29 106//29
f 94//30 103//30 96//30 95//30
f 107//31 104//31 106//31 108//31
f 109//32 107//32 108//32 110//32
f 108//33 106//33 1//33 38//33
f 110//34 108//34 38//34 37//34
f 72//35 90//35 89//35 82//35
f 85//36 111//36 112//36 113//36 86//36
f 90//37 102//37 92//37 91//37
f 114//38 115//38 116//38 117//38 118//38 22//38
f 119//39 37//39 40//39 120//39
f 39//40 6//40 5//40 121//40
f 40//41 39//41 121//41 122//41
f 123//42 124//42 13//42 12//42 42//42 41//42 125//42
f 92//43 126//43 53//43 56//43
f 73//44 81//44 16//44 127//44 128//44
f 98//45 97//45 9//45 8//45 19//45 20//45 14//45 57//45 60//45 69//45 71//45 104//45 107//45 109//45 99//45
f 127//46 16//46 15//46 129//46
f 55//47 54//47 31//47 30//47
f 130//48 125//48 41//48 45//48
f 131//49 88//49 116//49 115//49
f 132//50 131//50 115//50 114//50
f 121//51 131//51 132//51 114//51 32//51 31//51 54//51 53//51 126//51 120//51 40//51 122//51
f 129//52 15//52 18//52 49//52 48//52
f 32//53 114//53 22//53 21//53
f 100//54 99//54 109//54 110//54 37//54 119//54 120//54 126//54 92//54 102//54 68//54 67//54
f 113//55 112//55 77//55 133//55 134//55 117//55
f 93//56 30//56 29//56 94//56
f 70//57 2//57 1//57 106//57 105//57 71//57
f 50//58 101//58 36//58 35//58 51//58
f 118//59 117//59 134//59 135//59
f 22//60 118//60 135//60 23//60
f 23//61 135//61 75//61 24//61
f 134//62 133//62 77//62 76//62
f 135//63 134//63 76//63 75//63
f 28//64 27//64 128//64 136//64
f 77//65 112//65 79//65 78//65
f 103//66 28//66 136//66 52//66
f 86//67 113//67 117//67 116//67 88//67 87//67
f 96//68 103//68 52//68 51//68
f 26//69 25//69 74//69 73//69
f 27//70 26//70 73//70 128//70
f 112//71 111//71 130//71 79//71
f 123//72 137//72 59//72 58//72 124//72
f 79//73 130//73 45//73 44//73
f 136//74 128//74 127//74 129//74
f 137//75 83//75 3//75 2//75 70//75 59//75
f 52//76 136//76 129//76 48//76
f 46//77 61//77 65//77 138//77 47//77
f 130//78 111//78 85//78 84//78 83//78 137//78 123//78 125//78
f 10//79 62//79 61//79 46//79
f 9//80 97//80 63//80 62//80 10//80
f 65//81 66//81 34//81 33//81 138//81
f 47//82 138//82 33//82 36//82 101//82 17//82
f 124//83 58//83 57//83 14//83 13//83
f 5//84 88//84 131//84 121//84
f 16//85 81//85 8//85 7//85
f 43//86 42//86 12//86 11//86
f 80//87 43//87 11//87 19//87
