# Blender v2.83.3 OBJ File: ''
# www.blender.org
mtllib rock4.mtl
o Sphere.001_Sphere
v -0.482517 0.260784 0.250392
v -0.507261 0.289216 0.263239
v -0.534185 0.299925 0.117598
v -0.522763 0.262431 0.103940
v -0.059828 0.044522 0.030936
v -0.147243 0.045210 0.076322
v -0.157749 0.045092 0.018850
v -0.066452 0.044474 0.002338
v -0.451188 0.221064 0.234127
v -0.492266 0.217850 0.100182
v -0.127846 0.380256 0.066251
v -0.061095 0.355072 0.031594
v -0.126376 0.377670 0.051677
v 0.042124 0.043388 -0.021996
v -0.423100 0.182187 0.219544
v -0.463482 0.179788 0.088259
v -0.197628 0.392508 0.102481
v -0.189606 0.387448 0.065631
v -0.398767 0.147060 0.206910
v -0.433594 0.141402 0.081570
v -0.302678 0.381220 0.157021
v -0.307070 0.377429 0.097069
v -0.382683 0.119468 0.198560
v -0.404381 0.113168 0.077915
v -0.397626 0.345850 0.206318
v -0.369059 0.356472 0.053181
v -0.325704 0.092983 0.168977
v -0.352506 0.086342 0.065632
v -0.461098 0.324946 0.239271
v -0.457950 0.319441 0.088964
v -0.235269 0.068176 0.122024
v -0.247401 0.061157 0.034670
v -0.402126 0.328466 -0.021705
v -0.423822 0.288016 -0.037217
v -0.234221 0.051070 -0.047748
v -0.144995 0.044748 -0.039715
v -0.440037 0.249251 -0.032334
v -0.056532 0.044224 -0.029376
v -0.450823 0.209446 -0.033058
v -0.112934 0.370090 0.023940
v -0.450812 0.169314 -0.040094
v -0.163253 0.377621 0.011949
v -0.429227 0.133983 -0.056392
v -0.286917 0.358248 0.010981
v -0.396087 0.096938 -0.048298
v -0.358591 0.346250 0.007454
v -0.327367 0.070454 -0.044319
v -0.252493 0.159867 -0.203079
v -0.259327 0.124118 -0.194999
v -0.108396 0.361186 -0.049135
v -0.161923 0.346358 -0.071799
v -0.255378 0.091858 -0.187019
v -0.228759 0.323300 -0.098143
v -0.209280 0.065844 -0.167969
v -0.245994 0.302724 -0.127870
v -0.154962 0.046980 -0.134753
v -0.237011 0.286449 -0.153288
v -0.092409 0.043476 -0.100456
v -0.243626 0.247637 -0.181092
v -0.025555 0.043600 -0.062653
v -0.242765 0.205027 -0.208561
v -0.087757 0.359232 -0.002957
v -0.027666 0.040813 -0.224450
v -0.002987 0.042437 -0.160391
v -0.081360 0.254460 -0.243718
v -0.071227 0.232245 -0.264472
v 0.020606 0.043143 -0.091563
v -0.058239 0.200816 -0.286391
v -0.060098 0.348797 -0.021337
v -0.050328 0.162198 -0.308382
v -0.054016 0.341568 -0.076035
v -0.059533 0.118063 -0.313408
v -0.056016 0.326197 -0.120898
v -0.057612 0.071394 -0.293306
v -0.089418 0.307505 -0.158399
v -0.045931 0.043484 -0.268448
v -0.083094 0.282099 -0.207246
v -0.003561 0.324441 -0.089959
v 0.022592 0.304792 -0.147027
v 0.185946 0.109962 -0.397361
v 0.173517 0.054693 -0.380225
v 0.041772 0.285650 -0.191786
v 0.151935 0.035690 -0.346340
v 0.073014 0.262078 -0.245034
v 0.129951 0.038612 -0.287744
v 0.103037 0.241035 -0.292517
v 0.103658 0.041534 -0.200802
v 0.134769 0.217396 -0.327288
v 0.074513 0.042873 -0.110522
v 0.168089 0.194110 -0.355856
v -0.033587 0.340174 -0.026288
v 0.180040 0.153320 -0.378583
v 0.212336 0.233061 -0.280618
v 0.262373 0.210508 -0.325416
v 0.205503 0.040153 -0.207913
v 0.126038 0.042516 -0.114756
v 0.314237 0.184068 -0.365352
v -0.015683 0.335587 -0.016986
v 0.313691 0.154419 -0.373294
v 0.032241 0.314831 -0.077811
v 0.386318 0.121822 -0.421342
v 0.074716 0.297724 -0.132190
v 0.377100 0.060559 -0.433822
v 0.113981 0.279854 -0.184015
v 0.345567 0.030599 -0.386555
v 0.160545 0.256710 -0.232403
v 0.282390 0.035900 -0.300376
v 0.481574 0.104129 -0.335125
v 0.482978 0.055628 -0.335815
v 0.100842 0.298186 -0.079880
v 0.154818 0.280571 -0.120787
v 0.423827 0.027977 -0.290889
v 0.217667 0.259742 -0.170729
v 0.392101 0.034472 -0.258409
v 0.278592 0.239467 -0.219770
v 0.280343 0.039584 -0.181908
v 0.306892 0.214868 -0.240142
v 0.162840 0.042359 -0.102039
v 0.367396 0.178745 -0.276383
v -0.003228 0.333211 -0.006554
v 0.423359 0.141148 -0.306485
v 0.055823 0.311148 -0.048530
v 0.309976 0.039584 -0.124831
v 0.177046 0.042359 -0.074678
v 0.372882 0.214868 -0.113041
v 0.437335 0.178745 -0.141677
v 0.003401 0.333211 0.006212
v 0.494154 0.141148 -0.170129
v 0.071709 0.311148 -0.017934
v 0.551073 0.104129 -0.201266
v 0.123251 0.298186 -0.036718
v 0.552445 0.055627 -0.202018
v 0.187764 0.280571 -0.057330
v 0.530293 0.027977 -0.204733
v 0.264772 0.259742 -0.080001
v 0.436848 0.034472 -0.172224
v 0.339936 0.239467 -0.101615
v 0.523061 0.060559 -0.033784
v 0.514885 0.030599 -0.060435
v 0.215983 0.279855 0.012449
v 0.282350 0.256710 0.002205
v 0.408050 0.035900 -0.058345
v 0.351584 0.233061 -0.012416
v 0.288187 0.040153 -0.048657
v 0.417015 0.210508 -0.027566
v 0.166273 0.042516 -0.037261
v 0.430890 0.184068 -0.021762
v 0.004767 0.335587 0.022402
v 0.485699 0.154419 -0.041993
v 0.082089 0.314831 0.018201
v 0.518157 0.121822 -0.048504
v 0.151004 0.297724 0.014747
v 0.002074 0.340176 0.042398
v 0.133165 0.042873 0.002446
v 0.387664 0.194109 0.067063
v 0.413129 0.153319 0.070364
v 0.071427 0.324441 0.054472
v 0.431885 0.109961 0.076338
v 0.133150 0.304792 0.065916
v 0.410719 0.054692 0.076644
v 0.180794 0.285650 0.075980
v 0.370587 0.035690 0.074801
v 0.242321 0.262078 0.081063
v 0.310012 0.038612 0.059068
v 0.298431 0.241034 0.083827
v 0.223774 0.041534 0.030551
v 0.345128 0.217396 0.077879
v 0.078007 0.307505 0.164073
v 0.121596 0.282099 0.187004
v 0.193036 0.043483 0.191821
v 0.167559 0.040812 0.151568
v 0.152426 0.254459 0.206571
v 0.129363 0.042436 0.094526
v 0.175231 0.232245 0.210223
v 0.086643 0.043143 0.035629
v 0.200630 0.200815 0.212212
v -0.017228 0.348797 0.061233
v 0.223169 0.162198 0.218393
v 0.031010 0.341568 0.087730
v 0.221983 0.118062 0.228814
v 0.066552 0.326197 0.115176
v 0.206648 0.071393 0.215677
v 0.030806 0.205026 0.318358
v 0.020724 0.159866 0.323160
v -0.048175 0.359232 0.073280
v -0.022281 0.361186 0.116730
v 0.010184 0.124117 0.324099
v -0.034540 0.346357 0.173550
v 0.005930 0.091857 0.316280
v -0.051448 0.323299 0.243371
v 0.016870 0.065843 0.267614
v -0.037050 0.302723 0.274572
v 0.020955 0.046979 0.204077
v -0.011092 0.286448 0.281849
v 0.028893 0.043475 0.133182
v 0.007843 0.247636 0.303257
v 0.036439 0.043600 0.056751
v -0.152205 0.070453 0.293057
v -0.095808 0.051069 0.218844
v -0.213714 0.328465 0.341191
v -0.213509 0.288015 0.367862
v -0.051043 0.044748 0.141244
v -0.226832 0.249250 0.378314
v -0.008602 0.044224 0.062943
v -0.232446 0.209445 0.387553
v -0.084660 0.370090 0.078397
v -0.226684 0.169313 0.391592
v -0.103804 0.377620 0.126454
v -0.200936 0.133982 0.383315
v -0.174161 0.358247 0.228155
v -0.188489 0.096937 0.351552
v -0.204540 0.342580 0.298571
v -0.115080 0.377670 0.073433
v -0.162873 0.387448 0.117121
v -0.338955 0.179787 0.328107
v -0.316288 0.141401 0.307510
v -0.256169 0.377429 0.195108
v -0.296491 0.113168 0.285719
v -0.247963 0.352803 0.280823
v -0.256598 0.086341 0.250358
v -0.336348 0.319440 0.323177
v -0.170802 0.061156 0.182205
v -0.403631 0.299925 0.369056
v -0.106281 0.045091 0.117980
v -0.385888 0.262430 0.367571
v -0.040248 0.044474 0.052808
v -0.365268 0.217850 0.344790
vn -0.8337 -0.5255 0.1695
vn -0.0087 -1.0000 0.0045
vn -0.0062 -1.0000 0.0032
vn -0.0062 -1.0000 0.0048
vn -0.0090 -0.9999 0.0044
vn -0.7598 -0.6104 0.2238
vn 0.2853 0.9482 -0.1395
vn -0.0101 -0.9999 0.0055
vn -0.7392 -0.6292 0.2403
vn 0.1160 0.9853 -0.1251
vn -0.7503 -0.6163 0.2392
vn -0.1313 0.9868 -0.0952
vn -0.7391 -0.6429 0.2011
vn -0.3381 0.9411 -0.0082
vn -0.3925 -0.9094 0.1375
vn -0.3641 0.9311 -0.0224
vn -0.2064 -0.9726 0.1072
vn -0.2043 -0.9726 0.1114
vn -0.3938 0.9180 0.0478
vn -0.1882 -0.9791 0.0777
vn -0.5241 0.7823 -0.3366
vn -0.1218 -0.9912 0.0509
vn -0.8231 0.1157 -0.5560
vn -0.0068 -0.9999 0.0130
vn -0.0092 -0.9999 0.0053
vn -0.8976 -0.1885 -0.3984
vn 0.2923 0.9491 -0.1177
vn 0.2913 0.9497 -0.1148
vn 0.2917 0.9500 -0.1117
vn -0.9372 -0.3034 -0.1720
vn 0.1469 0.9795 -0.1376
vn -0.8219 -0.5694 -0.0143
vn -0.1481 0.9574 -0.2480
vn -0.1480 0.9574 -0.2480
vn -0.7238 -0.6895 0.0270
vn -0.3995 -0.9142 0.0678
vn -0.3841 0.9075 -0.1698
vn -0.2034 -0.9749 0.0911
vn -0.6344 -0.0424 -0.7718
vn -0.1326 0.9279 -0.3485
vn -0.6000 -0.4711 -0.6466
vn -0.1511 0.9152 -0.3736
vn -0.3442 -0.8874 -0.3067
vn -0.1582 0.8940 -0.4192
vn -0.2167 -0.9625 -0.1632
vn -0.4041 0.5931 -0.6964
vn -0.0598 -0.9981 -0.0172
vn -0.5239 0.3795 -0.7626
vn -0.0041 -0.9999 0.0113
vn -0.0078 -0.9999 0.0071
vn -0.5888 0.3242 -0.7404
vn 0.2896 0.9509 -0.1090
vn -0.6359 0.0864 -0.7669
vn 0.2158 0.9708 -0.1049
vn -0.0288 -0.9996 0.0064
vn -0.3144 0.5799 -0.7516
vn -0.0031 -0.9999 0.0120
vn -0.0058 -1.0000 0.0053
vn -0.3399 0.4771 -0.8105
vn 0.2880 0.9516 -0.1074
vn -0.4200 0.1842 -0.8886
vn 0.2971 0.9504 -0.0926
vn 0.2953 0.9507 -0.0943
vn 0.2968 0.9504 -0.0929
vn -0.4849 0.0640 -0.8722
vn 0.0235 0.9053 -0.4242
vn -0.4816 -0.3253 -0.8138
vn -0.0754 0.8847 -0.4601
vn -0.3713 -0.7922 -0.4843
vn -0.1217 0.8639 -0.4887
vn -0.1701 -0.9789 -0.1131
vn -0.1845 0.7862 -0.5898
vn 0.1949 0.9409 -0.2771
vn -0.3362 -0.2924 -0.8953
vn 0.0651 0.9023 -0.4262
vn -0.2824 -0.7258 -0.6272
vn 0.0268 0.9051 -0.4243
vn -0.0275 -0.9996 0.0014
vn -0.0466 0.8564 -0.5142
vn 0.0001 -0.9995 0.0301
vn -0.0020 -0.9995 0.0305
vn -0.0119 -0.9994 0.0320
vn -0.1472 0.7053 -0.6934
vn -0.0038 -0.9999 0.0130
vn -0.0106 -0.9999 0.0065
vn -0.2177 0.5559 -0.8022
vn 0.2893 0.9512 -0.1073
vn -0.2512 0.4265 -0.8689
vn 0.2931 0.9506 -0.1024
vn 0.2943 0.9510 -0.0949
vn -0.2890 0.2614 -0.9209
vn 0.0816 0.8961 -0.4364
vn -0.0106 -0.9998 0.0145
vn -0.0080 -1.0000 0.0038
vn 0.0358 0.8294 -0.5576
vn 0.2969 0.9493 -0.1032
vn 0.2964 0.9495 -0.1025
vn -0.0010 0.3991 -0.9169
vn 0.2905 0.9519 -0.0971
vn -0.0678 0.6186 -0.7828
vn 0.2341 0.9570 -0.1714
vn -0.1884 -0.0042 -0.9821
vn 0.1482 0.9501 -0.2744
vn -0.1342 -0.8072 -0.5748
vn 0.1066 0.9326 -0.3448
vn 0.1092 0.9323 -0.3449
vn 0.1087 0.9323 -0.3449
vn -0.0152 -0.9987 0.0478
vn 0.1062 0.9327 -0.3448
vn -0.0150 -0.9994 0.0320
vn -0.0210 -0.9993 0.0310
vn 0.6773 0.0399 -0.7346
vn 0.2265 0.9637 -0.1411
vn 0.2766 -0.9134 -0.2986
vn 0.2107 0.9581 -0.1940
vn -0.0593 -0.9969 0.0517
vn 0.1654 0.9565 -0.2403
vn -0.0221 -0.9993 0.0307
vn 0.3007 0.9070 -0.2948
vn -0.0126 -0.9998 0.0154
vn -0.0073 -1.0000 0.0035
vn 0.3686 0.9075 -0.2016
vn 0.2781 0.9545 -0.1078
vn 0.2813 0.9522 -0.1190
vn 0.2810 0.9524 -0.1180
vn 0.5311 0.7042 -0.4711
vn 0.2788 0.9543 -0.1074
vn 0.3308 0.9074 -0.2593
vn 0.2316 0.9673 -0.1029
vn -0.0199 -0.9998 0.0016
vn -0.0071 -1.0000 0.0042
vn 0.4052 0.8897 -0.2104
vn 0.2681 0.9533 -0.1389
vn 0.2683 0.9532 -0.1393
vn 0.2682 0.9533 -0.1390
vn 0.4520 0.8606 -0.2347
vn 0.2608 0.9558 -0.1354
vn 0.4399 0.8685 -0.2284
vn 0.2057 0.9728 -0.1068
vn 0.8870 0.0322 -0.4606
vn 0.2267 0.9668 -0.1177
vn 0.2264 0.9669 -0.1176
vn 0.4093 -0.8516 -0.3274
vn 0.2269 0.9668 -0.1178
vn -0.0710 -0.9955 0.0623
vn -0.0337 -0.9993 0.0175
vn 0.5152 0.8143 -0.2675
vn 0.8472 -0.5142 0.1338
vn 0.2799 0.9581 -0.0607
vn -0.0578 -0.9983 0.0058
vn 0.2917 0.9565 0.0029
vn -0.0378 -0.9993 0.0004
vn -0.0347 -0.9994 -0.0061
vn -0.0373 -0.9993 -0.0006
vn 0.4141 0.9070 -0.0763
vn -0.0179 -0.9998 0.0004
vn -0.0078 -1.0000 0.0044
vn 0.5996 0.7922 -0.1137
vn 0.2582 0.9524 -0.1619
vn 0.2592 0.9522 -0.1616
vn 0.2482 0.9544 -0.1656
vn 0.5047 0.8626 -0.0343
vn 0.2482 0.9543 -0.1662
vn 0.6155 0.7881 0.0038
vn 0.2174 0.9674 -0.1302
vn 0.9796 0.0795 0.1845
vn 0.2457 0.9637 -0.1041
vn 0.2545 0.9495 -0.1833
vn 0.2546 0.9501 -0.1800
vn 0.2532 0.9509 -0.1778
vn -0.0106 -0.9999 0.0050
vn 0.6585 0.6665 0.3494
vn 0.2466 0.9519 -0.1817
vn 0.2470 0.9510 -0.1861
vn 0.7167 0.4797 0.5062
vn 0.2749 0.9570 -0.0929
vn 0.7648 -0.0237 0.6438
vn 0.3097 0.9501 0.0367
vn 0.4655 -0.7410 0.4840
vn 0.3446 0.9324 0.1094
vn 0.3449 0.9323 0.1091
vn 0.3432 0.9327 0.1112
vn -0.0478 -0.9987 -0.0150
vn 0.3431 0.9327 0.1115
vn -0.0261 -0.9995 -0.0159
vn -0.0330 -0.9994 -0.0087
vn 0.4038 0.8961 0.1843
vn -0.0127 -0.9999 -0.0043
vn 0.6423 0.6965 0.3199
vn 0.3625 0.9051 0.2222
vn -0.0170 -0.9996 0.0217
vn 0.3937 0.8564 0.3340
vn -0.0246 -0.9995 -0.0174
vn 0.4825 0.7053 0.5193
vn -0.0112 -0.9999 -0.0034
vn -0.0078 -1.0000 0.0017
vn 0.5309 0.5559 0.6396
vn 0.2536 0.9516 -0.1737
vn 0.5662 0.4265 0.7054
vn 0.2469 0.9508 -0.1873
vn 0.2467 0.9504 -0.1893
vn 0.5870 0.2614 0.7662
vn 0.3388 0.9409 -0.0000
vn 0.5388 -0.2924 0.7901
vn 0.3861 0.9023 0.1920
vn 0.3505 -0.7258 0.5919
vn 0.4852 0.1842 0.8548
vn 0.2466 0.9504 -0.1897
vn 0.4345 0.0640 0.8984
vn 0.3605 0.9053 0.2248
vn 0.3885 -0.3253 0.8621
vn 0.3329 0.8847 0.3264
vn 0.1825 -0.7922 0.5823
vn 0.3297 0.8639 0.3807
vn -0.0053 -0.9789 0.2042
vn 0.3762 0.7862 0.4903
vn -0.0218 -0.9996 0.0199
vn 0.4338 0.5799 0.6896
vn -0.0117 -0.9999 -0.0031
vn -0.0104 -0.9999 0.0023
vn 0.4674 0.4771 0.7443
vn 0.2558 0.9509 -0.1742
vn 0.0088 -0.9625 0.2711
vn 0.3371 0.5931 0.7312
vn -0.0204 -0.9981 0.0588
vn 0.3223 0.3795 0.8672
vn -0.0146 -0.9999 -0.0018
vn -0.0097 -0.9999 0.0045
vn 0.2669 0.3242 0.9076
vn 0.2582 0.9501 -0.1749
vn 0.2614 0.0864 0.9613
vn 0.2099 0.9708 -0.1161
vn 0.2663 -0.0424 0.9630
vn 0.2087 0.9279 0.3090
vn 0.1837 -0.4710 0.8628
vn 0.2209 0.9185 0.3281
vn 0.0528 -0.8874 0.4580
vn 0.2658 0.8796 0.3945
vn 0.1971 0.9795 -0.0410
vn -0.4612 -0.5694 0.6805
vn 0.1176 0.9574 0.2638
vn 0.1176 0.9574 0.2637
vn -0.4385 -0.6895 0.5764
vn -0.2853 -0.9142 0.2877
vn -0.0823 0.9073 0.4124
vn -0.1915 -0.9749 0.1139
vn -0.0263 0.7823 0.6223
vn -0.1118 -0.9912 0.0704
vn -0.0188 0.1157 0.9931
vn -0.0076 -1.0000 0.0023
vn -0.0089 -0.9999 0.0047
vn -0.1906 -0.1885 0.9634
vn 0.2644 0.9490 -0.1714
vn -0.3986 -0.3034 0.8655
vn -0.2656 0.9180 0.2946
vn -0.1718 -0.9791 0.1092
vn -0.6183 -0.5255 0.5844
vn -0.6202 -0.6104 0.4927
vn 0.2782 0.9482 -0.1532
vn -0.6219 -0.6292 0.4663
vn 0.1691 0.9853 -0.0229
vn -0.6274 -0.6163 0.4760
vn 0.0023 0.9868 0.1621
vn -0.5897 -0.6429 0.4888
vn -0.1824 0.9343 0.3063
vn -0.1856 0.9367 0.2970
vn -0.1850 0.9363 0.2985
vn -0.3383 -0.9094 0.2419
vn -0.1819 0.9343 0.3065
vn -0.2086 -0.9726 0.1030
usemtl (null).003
s 1
f 1//1 2//1 3//1 4//1
f 5//2 6//3 7//4 8//5
f 9//6 1//6 4//6 10//6
f 11//7 12//7 13//7
f 14//8 5//2 8//5
f 15//9 9//9 10//9 16//9
f 17//10 11//10 13//10 18//10
f 19//11 15//11 16//11 20//11
f 21//12 17//12 18//12 22//12
f 23//13 19//13 20//13 24//13
f 25//14 21//14 22//14 26//14
f 27//15 23//15 24//15 28//15
f 29//16 25//16 26//16 30//16
f 31//17 27//17 28//18 32//18
f 2//19 29//19 30//19 3//19
f 6//20 31//20 32//20 7//20
f 3//21 30//21 33//21 34//21
f 7//22 32//22 35//22 36//22
f 4//23 3//23 34//23 37//23
f 8//5 7//4 36//24 38//25
f 10//26 4//26 37//26 39//26
f 13//27 12//28 40//29
f 14//8 8//5 38//25
f 16//30 10//30 39//30 41//30
f 18//31 13//31 40//31 42//31
f 20//32 16//32 41//32 43//32
f 22//33 18//34 42//34 44//33
f 24//35 20//35 43//35 45//35
f 26//33 22//33 44//33 46//33
f 28//36 24//36 45//36 47//36
f 30//37 26//37 46//37 33//37
f 32//38 28//38 47//38 35//38
f 43//39 41//39 48//39 49//39
f 44//40 42//40 50//40 51//40
f 45//41 43//41 49//41 52//41
f 46//42 44//42 51//42 53//42
f 47//43 45//43 52//43 54//43
f 33//44 46//44 53//44 55//44
f 35//45 47//45 54//45 56//45
f 34//46 33//46 55//46 57//46
f 36//47 35//47 56//47 58//47
f 37//48 34//48 57//48 59//48
f 38//25 36//24 58//49 60//50
f 39//51 37//51 59//51 61//51
f 40//29 12//28 62//52
f 14//8 38//25 60//50
f 41//53 39//53 61//53 48//53
f 42//54 40//54 62//54 50//54
f 58//55 56//55 63//55 64//55
f 59//56 57//56 65//56 66//56
f 60//50 58//49 64//57 67//58
f 61//59 59//59 66//59 68//59
f 62//52 12//28 69//60
f 14//8 60//50 67//58
f 48//61 61//61 68//61 70//61
f 50//62 62//62 69//63 71//64
f 49//65 48//65 70//65 72//65
f 51//66 50//66 71//66 73//66
f 52//67 49//67 72//67 74//67
f 53//68 51//68 73//68 75//68
f 54//69 52//69 74//69 76//69
f 55//70 53//70 75//70 77//70
f 56//71 54//71 76//71 63//71
f 57//72 55//72 77//72 65//72
f 73//73 71//73 78//73 79//73
f 74//74 72//74 80//74 81//74
f 75//75 73//75 79//75 82//75
f 76//76 74//76 81//76 83//76
f 77//77 75//77 82//77 84//77
f 63//78 76//78 83//78 85//78
f 65//79 77//79 84//79 86//79
f 64//80 63//80 85//81 87//82
f 66//83 65//83 86//83 88//83
f 67//58 64//57 87//84 89//85
f 68//86 66//86 88//86 90//86
f 69//60 12//28 91//87
f 14//8 67//58 89//85
f 70//88 68//88 90//88 92//88
f 71//64 69//63 91//89 78//90
f 72//91 70//91 92//91 80//91
f 88//92 86//92 93//92 94//92
f 89//85 87//84 95//93 96//94
f 90//95 88//95 94//95 97//95
f 91//89 12//96 98//97
f 14//8 89//85 96//94
f 92//98 90//98 97//98 99//98
f 78//90 91//89 98//97 100//99
f 80//100 92//100 99//100 101//100
f 79//101 78//101 100//101 102//101
f 81//102 80//102 101//102 103//102
f 82//103 79//103 102//103 104//103
f 83//104 81//104 103//104 105//104
f 84//105 82//106 104//106 106//107
f 85//108 83//108 105//108 107//108
f 86//109 84//105 106//107 93//109
f 87//82 85//81 107//110 95//111
f 103//112 101//112 108//112 109//112
f 104//113 102//113 110//113 111//113
f 105//114 103//114 109//114 112//114
f 106//115 104//115 111//115 113//115
f 107//116 105//116 112//116 114//116
f 93//117 106//117 113//117 115//117
f 95//111 107//110 114//118 116//118
f 94//119 93//119 115//119 117//119
f 96//94 95//93 116//120 118//121
f 97//122 94//122 117//122 119//122
f 98//123 12//124 120//125
f 14//8 96//94 118//121
f 99//126 97//126 119//126 121//126
f 100//127 98//123 120//125 122//127
f 101//128 99//128 121//128 108//128
f 102//129 100//129 122//129 110//129
f 118//121 116//120 123//130 124//131
f 119//132 117//132 125//132 126//132
f 120//133 12//134 127//135
f 14//8 118//121 124//131
f 121//136 119//136 126//136 128//136
f 122//137 120//133 127//135 129//137
f 108//138 121//138 128//138 130//138
f 110//139 122//139 129//139 131//139
f 109//140 108//140 130//140 132//140
f 111//141 110//142 131//142 133//141
f 112//143 109//143 132//143 134//143
f 113//144 111//141 133//141 135//144
f 114//145 112//145 134//145 136//145
f 115//144 113//144 135//144 137//144
f 116//146 114//146 136//146 123//146
f 117//147 115//147 137//147 125//147
f 134//148 132//148 138//148 139//148
f 135//149 133//149 140//149 141//149
f 136//150 134//150 139//150 142//150
f 137//151 135//151 141//151 143//151
f 123//152 136//152 142//153 144//154
f 125//155 137//155 143//155 145//155
f 124//131 123//130 144//156 146//157
f 126//158 125//158 145//158 147//158
f 127//159 12//160 148//161
f 14//8 124//131 146//157
f 128//162 126//162 147//162 149//162
f 129//163 127//159 148//161 150//163
f 130//164 128//164 149//164 151//164
f 131//165 129//165 150//165 152//165
f 132//166 130//166 151//166 138//166
f 133//167 131//167 152//167 140//167
f 148//168 12//169 153//170
f 14//8 146//157 154//171
f 149//172 147//172 155//172 156//172
f 150//173 148//168 153//170 157//174
f 151//175 149//175 156//175 158//175
f 152//176 150//176 157//176 159//176
f 138//177 151//177 158//177 160//177
f 140//178 152//178 159//178 161//178
f 139//179 138//179 160//179 162//179
f 141//180 140//181 161//181 163//182
f 142//183 139//183 162//183 164//183
f 143//184 141//180 163//182 165//184
f 144//154 142//153 164//185 166//186
f 145//187 143//187 165//187 167//187
f 146//157 144//156 166//188 154//171
f 147//189 145//189 167//189 155//189
f 163//190 161//190 168//190 169//190
f 164//191 162//191 170//191 171//191
f 165//192 163//192 169//192 172//192
f 166//186 164//185 171//193 173//193
f 167//194 165//194 172//194 174//194
f 154//171 166//188 173//195 175//196
f 155//197 167//197 174//197 176//197
f 153//170 12//169 177//198
f 14//8 154//171 175//196
f 156//199 155//199 176//199 178//199
f 157//174 153//170 177//200 179//201
f 158//202 156//202 178//202 180//202
f 159//203 157//203 179//203 181//203
f 160//204 158//204 180//204 182//204
f 161//205 159//205 181//205 168//205
f 162//206 160//206 182//206 170//206
f 178//207 176//207 183//207 184//207
f 179//201 177//200 185//208 186//208
f 180//209 178//209 184//209 187//209
f 181//210 179//210 186//210 188//210
f 182//211 180//211 187//211 189//211
f 168//212 181//212 188//212 190//212
f 170//213 182//213 189//213 191//213
f 169//214 168//214 190//214 192//214
f 171//215 170//215 191//215 193//215
f 172//216 169//216 192//216 194//216
f 173//217 171//217 193//217 195//217
f 174//218 172//218 194//218 196//218
f 175//196 173//195 195//219 197//220
f 176//221 174//221 196//221 183//221
f 177//198 12//169 185//222
f 14//8 175//196 197//220
f 193//223 191//223 198//223 199//223
f 194//224 192//224 200//224 201//224
f 195//225 193//225 199//225 202//225
f 196//226 194//226 201//226 203//226
f 197//220 195//219 202//227 204//228
f 183//229 196//229 203//229 205//229
f 185//222 12//169 206//230
f 14//8 197//220 204//228
f 184//231 183//231 205//231 207//231
f 186//232 185//232 206//232 208//232
f 187//233 184//233 207//233 209//233
f 188//234 186//234 208//234 210//234
f 189//235 187//235 209//235 211//235
f 190//236 188//236 210//236 212//236
f 191//237 189//237 211//237 198//237
f 192//238 190//238 212//238 200//238
f 208//239 206//239 213//239 214//239
f 209//240 207//240 215//240 216//240
f 210//241 208//242 214//242 217//241
f 211//243 209//243 216//243 218//243
f 212//241 210//241 217//241 219//241
f 198//244 211//244 218//244 220//244
f 200//245 212//245 219//245 221//245
f 199//246 198//246 220//246 222//246
f 201//247 200//247 221//247 223//247
f 202//248 199//248 222//248 224//248
f 203//249 201//249 223//249 225//249
f 204//228 202//227 224//250 226//251
f 205//252 203//252 225//252 227//252
f 206//253 12//253 213//253
f 14//8 204//228 226//251
f 207//254 205//254 227//254 215//254
f 223//255 221//255 29//255 2//255
f 224//256 222//256 31//256 6//256
f 225//257 223//257 2//257 1//257
f 226//251 224//250 6//3 5//2
f 227//258 225//258 1//258 9//258
f 213//259 12//259 11//259
f 14//8 226//251 5//2
f 215//260 227//260 9//260 15//260
f 214//261 213//261 11//261 17//261
f 216//262 215//262 15//262 19//262
f 217//263 214//263 17//263 21//263
f 218//264 216//264 19//264 23//264
f 219//265 217//266 21//266 25//267
f 220//268 218//268 23//268 27//268
f 221//269 219//265 25//267 29//269
f 222//270 220//270 27//17 31//17
