# Blender v2.83.3 OBJ File: ''
# www.blender.org
mtllib rock5.mtl
o Icosphere
v -0.000377 0.006282 0.038508
v 0.056511 0.021284 0.121888
v -0.021721 0.032483 0.190456
v 0.164825 0.057067 0.186020
v 0.149996 0.041201 0.023962
v -0.052149 0.016013 0.023606
v -0.009106 0.016375 -0.163827
v 0.032298 0.012839 -0.085690
v 0.282610 0.153591 0.105767
v -0.067247 0.057097 0.316658
v 0.067086 0.051803 0.287613
v -0.000377 0.109797 0.450570
v -0.171633 0.047844 0.020553
v -0.141522 0.044810 0.182377
v -0.283365 0.153591 0.105767
v -0.043200 0.039257 -0.364740
v -0.091099 0.024942 -0.187783
v -0.183098 0.120392 -0.375945
v 0.111745 0.030575 -0.202176
v 0.036169 0.035047 -0.337196
v 0.182343 0.120392 -0.375945
v 0.180582 0.166601 0.315459
v -0.181337 0.166601 0.315459
v -0.292251 0.105466 -0.126752
v -0.000377 0.101454 -0.481874
v 0.291497 0.105466 -0.126752
v 0.113757 0.314874 0.393570
v 0.291396 0.368580 0.198030
v 0.074360 0.462715 0.227414
v -0.294599 0.335840 0.202004
v -0.120882 0.348641 0.380216
v -0.200511 0.443540 0.135197
v -0.282871 0.260609 -0.224992
v -0.354162 0.355670 -0.009413
v -0.182136 0.385456 -0.114660
v 0.123862 0.208467 -0.347490
v -0.116433 0.227987 -0.321792
v 0.071789 0.338757 -0.176042
v 0.344774 0.323694 -0.007226
v 0.282769 0.280399 -0.218410
v 0.232439 0.417507 0.000695
v -0.000377 0.422652 0.027058
vn 0.0090 -0.9852 0.1711
vn 0.0160 -0.9838 0.1788
vn 0.0103 -0.9850 0.1724
vn 0.2761 -0.9587 0.0686
vn -0.2206 -0.9659 0.1356
vn -0.1730 -0.9840 -0.0416
vn 0.0095 -0.9987 -0.0502
vn 0.6405 -0.7678 0.0166
vn 0.0386 -0.9363 0.3492
vn -0.6402 -0.7610 0.1049
vn -0.4797 -0.8546 -0.1990
vn 0.4312 -0.8610 -0.2699
vn 0.7279 -0.5646 0.3892
vn -0.5888 -0.6076 0.5331
vn -0.5978 -0.7802 0.1843
vn -0.3899 -0.7467 -0.5390
vn 0.4606 -0.8509 -0.2527
vn 0.3927 0.7313 0.5576
vn -0.5154 0.7293 0.4500
vn -0.4261 0.7673 -0.4793
vn -0.0000 0.7962 -0.6051
vn 0.0000 0.7961 -0.6051
vn 0.5926 0.7370 -0.3251
vn -0.0237 0.9210 -0.3889
vn 0.1351 0.8536 -0.5031
vn 0.1066 0.8070 -0.5809
vn 0.0856 0.9312 -0.3542
vn 0.0001 0.7961 -0.6052
vn -0.2235 0.7405 -0.6338
vn -0.0215 0.9735 -0.2279
vn -0.3047 0.9225 -0.2369
vn -0.6471 0.7203 0.2499
vn -0.0030 0.9808 -0.1950
vn -0.0017 0.9807 -0.1955
vn -0.0018 0.9807 -0.1954
vn -0.1995 0.8902 0.4096
vn 0.0712 0.7535 0.6536
vn -0.0005 0.9806 -0.1959
vn 0.4075 0.9073 0.1032
vn 0.6409 0.7676 -0.0012
vn 0.9604 -0.0901 -0.2635
vn 0.8994 -0.1668 -0.4040
vn 0.3922 0.5082 -0.7668
vn 0.3923 0.5082 -0.7667
vn 0.3926 0.5083 -0.7665
vn -0.0028 0.7835 -0.6213
vn -0.3594 0.5876 -0.7250
vn -0.3229 0.5775 -0.7498
vn -0.9571 -0.1114 -0.2674
vn -0.9551 -0.2807 0.0946
vn -0.9494 -0.1903 0.2496
vn -0.7157 -0.0108 0.6984
vn -0.6119 -0.0768 0.7872
vn -0.0151 0.2755 0.9612
vn 0.7425 -0.0181 0.6696
vn 0.8710 -0.2234 0.4376
vn 0.9464 -0.1592 0.2809
vn 0.3920 0.5081 -0.7670
vn 0.3524 -0.8136 -0.4625
vn 0.1041 -0.8937 -0.4365
vn -0.8927 -0.2013 -0.4031
vn -0.4222 -0.8749 -0.2374
vn -0.3834 -0.9224 -0.0468
vn -0.8558 -0.2819 0.4339
vn -0.6830 -0.6290 0.3713
vn -0.6337 -0.6557 0.4105
vn 0.6190 -0.1292 0.7747
vn 0.5658 -0.6745 0.4743
vn 0.5534 -0.6678 0.4978
vn 0.9537 -0.2851 0.0955
vn 0.5650 -0.8034 0.1879
vn 0.3928 -0.9193 -0.0232
vn 0.0951 -0.9917 -0.0861
vn 0.0784 -0.9932 -0.0865
vn -0.0143 -0.9937 -0.1108
vn -0.0743 -0.9922 -0.1004
vn -0.0969 -0.9950 -0.0242
vn -0.2576 -0.9662 0.0066
vn -0.2580 -0.9657 0.0299
vn -0.1095 -0.9870 0.1174
vn -0.1113 -0.9822 0.1514
vn 0.2270 -0.9739 0.0083
vn 0.2231 -0.9747 0.0127
vn 0.2279 -0.9737 0.0072
vn 0.2221 -0.9749 0.0138
vn 0.2390 -0.9709 0.0116
vn 0.0029 -0.9813 0.1925
vn 0.0170 -0.9835 0.1800
vn 0.2212 -0.9615 0.1630
usemtl (null).004
s 1
f 1//1 2//2 3//3
f 4//4 2//4 5//4
f 1//5 3//5 6//5
f 1//6 6//6 7//6
f 1//7 7//7 8//7
f 4//8 5//8 9//8
f 10//9 11//9 12//9
f 13//10 14//10 15//10
f 16//11 17//11 18//11
f 19//12 20//12 21//12
f 4//13 9//13 22//13
f 10//14 12//14 23//14
f 13//15 15//15 24//15
f 16//16 18//16 25//16
f 19//17 21//17 26//17
f 27//18 28//18 29//18
f 30//19 31//19 32//19
f 33//20 34//20 35//20
f 36//21 37//22 38//22
f 39//23 40//23 41//23
f 41//24 38//24 42//24
f 41//25 40//25 38//25
f 40//26 36//26 38//26
f 38//27 35//27 42//27
f 38//22 37//22 35//28
f 37//29 33//29 35//29
f 35//30 32//30 42//30
f 35//31 34//31 32//31
f 34//32 30//32 32//32
f 32//33 29//34 42//35
f 32//36 31//36 29//36
f 31//37 27//37 29//37
f 29//34 41//38 42//35
f 29//39 28//39 41//39
f 28//40 39//40 41//40
f 26//41 40//41 39//41
f 26//42 21//42 40//42
f 21//43 36//44 40//45
f 25//46 37//46 36//46
f 25//47 18//47 37//47
f 18//48 33//48 37//48
f 24//49 34//49 33//49
f 24//50 15//50 34//50
f 15//51 30//51 34//51
f 23//52 31//52 30//52
f 23//53 12//53 31//53
f 12//54 27//54 31//54
f 22//55 28//55 27//55
f 22//56 9//56 28//56
f 9//57 39//57 28//57
f 21//43 25//58 36//44
f 21//59 20//59 25//59
f 20//60 16//60 25//60
f 18//61 24//61 33//61
f 18//62 17//62 24//62
f 17//63 13//63 24//63
f 15//64 23//64 30//64
f 15//65 14//65 23//65
f 14//66 10//66 23//66
f 12//67 22//67 27//67
f 12//68 11//68 22//68
f 11//69 4//69 22//69
f 9//70 26//70 39//70
f 9//71 5//71 26//71
f 5//72 19//72 26//72
f 8//73 20//73 19//73
f 8//74 7//74 20//74
f 7//75 16//75 20//75
f 7//76 17//76 16//76
f 7//77 6//77 17//77
f 6//78 13//78 17//78
f 6//79 14//79 13//79
f 6//80 3//80 14//80
f 3//81 10//81 14//81
f 5//82 8//83 19//84
f 5//82 2//85 8//83
f 2//86 1//86 8//86
f 3//87 11//87 10//87
f 3//3 2//2 11//88
f 2//89 4//89 11//89
